<svg xmlns="http://www.w3.org/2000/svg" viewBox="0 0 500 500"><g id="freepik--background-simple--inject-116"><path d="M221.94,458s80,12.85,142.74-43.37,80-147.62,95.92-221.23S442.68,54.29,380.15,33.3s-89.57,32.39-166.7,49.25-100.59,9.5-154.8,66.28-41.72,164.44,27,232.92S221.94,458,221.94,458Z" style="fill:#BA68C8"></path><path d="M221.94,458s80,12.85,142.74-43.37,80-147.62,95.92-221.23S442.68,54.29,380.15,33.3s-89.57,32.39-166.7,49.25-100.59,9.5-154.8,66.28-41.72,164.44,27,232.92S221.94,458,221.94,458Z" style="fill:#fff;opacity:0.7000000000000001"></path></g><g id="freepik--Clock--inject-116"><circle cx="368.6" cy="117.71" r="34.87" style="fill:none;stroke:#263238;stroke-linecap:round;stroke-linejoin:round"></circle><circle cx="368.6" cy="117.71" r="27.85" style="fill:none;stroke:#263238;stroke-linecap:round;stroke-linejoin:round"></circle><circle cx="368.6" cy="117.71" r="27.85" style="fill:none;stroke:#263238;stroke-linecap:round;stroke-linejoin:round"></circle><polyline points="358.71 110.99 368.6 117.71 392.92 117.71" style="fill:none;stroke:#263238;stroke-linecap:round;stroke-linejoin:round;stroke-width:2px"></polyline><path d="M371.3,117.71a2.7,2.7,0,1,1-2.7-2.69A2.7,2.7,0,0,1,371.3,117.71Z" style="fill:#fff;stroke:#263238;stroke-linecap:round;stroke-linejoin:round"></path></g><g id="freepik--Character--inject-116"><path d="M315.94,407s4.33,6,5.78,9.82-.72,6.41-6.86,9.06-10.1,2.26-15.51,3-7.93,5.28-15.87,6.79-14.43.38-14.07-2.26,10.46-5.67,15.15-11.33,13.35-15.48,13.35-15.48Z" style="fill:#fff;stroke:#263238;stroke-linecap:round;stroke-linejoin:round"></path><path d="M315.94,407l-4-.08-2.25,2.42a20.18,20.18,0,0,0-.83,1.91c-1.33,3.44-3.38,10.82.42,16.42a28.81,28.81,0,0,0,5.59-1.79c6.14-2.65,8.3-5.29,6.86-9.06S315.94,407,315.94,407Z" style="fill:#9e9e9e;stroke:#263238;stroke-linecap:round;stroke-linejoin:round"></path><path d="M284.5,329.59s9.68,22.85,10.85,34.47,21.3,39.12,22.46,41.06-.77,5-3.48,5.8-8.14,5-15.11,1.55-12-17.43-27.5-37.18-29.44-36.8-28.66-46.09,11.23-9.68,20.53-8.52S284.5,329.59,284.5,329.59Z" style="fill:#4f4f4f;stroke:#263238;stroke-linecap:round;stroke-linejoin:round"></path><path d="M274.82,416s-9.68,10.07-13.17,11.62-18.59,6.58-18.59,9.3,14.33,4.64,20.14,4.64,17-4.26,20.53-5.42,15.1-3.1,19.36-6.2-2.71-15.49-2.71-15.49Z" style="fill:#fff;stroke:#263238;stroke-linecap:round;stroke-linejoin:round"></path><path d="M258.4,441.26a23.64,23.64,0,0,0-2.56-7.87A16.92,16.92,0,0,0,254,430.6c-5.2,2.07-10.9,4.61-10.9,6.28C243.06,439,251.8,440.64,258.4,441.26Z" style="fill:#9e9e9e;stroke:#263238;stroke-linecap:round;stroke-linejoin:round"></path><path d="M293.73,414.81a19.27,19.27,0,0,0-1.48,4.64c-.88,4.85-.26,10.46.44,14.39,4-1,8.19-2.33,10.4-3.94,4.26-3.09-2.71-15.49-2.71-15.49Z" style="fill:#9e9e9e;stroke:#263238;stroke-linecap:round;stroke-linejoin:round"></path><path d="M221.36,324.23s.25,8.14,7.75,19.69,43.06,61.15,43.06,61.15,0,8.66.58,10.39,27.71,6.36,29.45,1.16-6.93-16.17-6.93-16.17l-26-72.75s-8.08-16.17-19.63-17.9S221.36,316.73,221.36,324.23Z" style="fill:#6b6b6b;stroke:#263238;stroke-linecap:round;stroke-linejoin:round"></path><path d="M440.31,147.58l-28.44.34s-2.72-.34-3.4,1.7c0,0-7.15,18-7.49,24.5s1.37,5.45-1.36,13.95-10.55,28.59-15,44.92c-5.95,22-7.49,45.26-7.87,67.92-.06,3.63-2.24,34.92,3.42,34.92,4.7,0,35.29,5.74,35.81-2.61,2.08-33.29-3.93-65.81,7.63-98.19,4.49-12.57,9.64-25.85,13.45-39s4.48-26.82,7-40.28C445.76,146.56,440.31,147.58,440.31,147.58Z" style="fill:#263238;stroke:#263238;stroke-linecap:round;stroke-linejoin:round"></path><path d="M440.31,147.58l-28.44.34s-2.72-.34-3.4,1.7c0,0-5.94,15-7.24,22.54a29.19,29.19,0,0,0-.91,10.17c.64,5.91,2.33,11.19,10.77,13.31,7.32,1.82,16.38.32,19.77-4.51,3.51-2.62,2.85-7.33,5-11.9,3.4-7.15,4.76-18.72,7.49-25.52a20,20,0,0,1,1-2.05C443.94,146.91,440.31,147.58,440.31,147.58Z" style="fill:#828282;stroke:#263238;stroke-linecap:round;stroke-linejoin:round"></path><path d="M434.8,165c-2.76,9.94-1.1,12.7-3.87,29.82s-12.7,36.45-16.56,54.12-2.21,80.08-1.66,82.84a24.78,24.78,0,0,1,.24,4.44c1.85-.69,3-1.65,3.06-2.95,2.08-33.29-3.93-65.81,7.63-98.19,4.49-12.57,9.64-25.85,13.45-39s4.47-26.82,7-40.28c1-5.65-.61-7.43-2-8l0,.06A73.66,73.66,0,0,0,434.8,165Z" style="fill:#696969;stroke:#263238;stroke-linecap:round;stroke-linejoin:round"></path><path d="M348.59,419.89l-.31-.24V377.44h6.07V350.76H331.91v26.68H338v42.94l-53.67,17.1v4.25a4.85,4.85,0,0,0,9.7,0v-.61l44.88-5.22v6.43a4.25,4.25,0,1,0,8.5,0v-6.64l46.69,5.43v.61a4.86,4.86,0,0,0,9.71,0v-4.25Z" style="fill:#263238;stroke:#263238;stroke-linecap:round;stroke-linejoin:round"></path><polygon points="348.29 419.65 348.29 377.67 337.97 377.67 337.97 419.67 348.3 419.67 348.29 419.65" style="fill:#fff;stroke:#263238;stroke-linecap:round;stroke-linejoin:round"></polygon><rect x="273.14" y="332.32" width="145.59" height="23.35" rx="4" style="fill:#263238;stroke:#263238;stroke-linecap:round;stroke-linejoin:round"></rect><path d="M279.49,199.89s8.19,2.57,11,3.51,12.17,10.29,12.17,10.29,11.23-28.08,12.17-30.65,1.4-4.22,1.4-4.22a7.73,7.73,0,0,1-8.42-2.34c-4-4.21,1.17-12.63-3.51-19.89s-33.47,8.19-34.17,15.68S272.7,195.67,279.49,199.89Z" style="fill:#fff;stroke:#263238;stroke-linecap:round;stroke-linejoin:round"></path><path d="M255.39,156.83s.47,6.31,2.1,8.89,3.28,7.25,2.11,9.36-5.38,4.45-4.68,6.79,6.32,3.27,6.32,3.27l1.4,3.28s4.45-2.57,8.43-1.4,11.23-.24,12.87-4.45,1.87-19.66.47-30.19S278.32,136.93,269.9,139,254.92,151,255.39,156.83Z" style="fill:#fff;stroke:#263238;stroke-linecap:round;stroke-linejoin:round"></path><path d="M262.36,168.54s.05-6.1,4.49-6.8" style="fill:none;stroke:#263238;stroke-linecap:round;stroke-linejoin:round;stroke-width:2px"></path><path d="M266.78,170.21c.51,1.33.44,2.59-.17,2.82s-1.5-.65-2-2-.44-2.59.16-2.83S266.26,168.89,266.78,170.21Z" style="fill:#263238"></path><path d="M274.06,158s2.11,2.33-1.4,3.27" style="fill:none;stroke:#263238;stroke-linecap:round;stroke-linejoin:round"></path><path d="M276.87,158s-.7,3.5,2.1,3.5" style="fill:none;stroke:#263238;stroke-linecap:round;stroke-linejoin:round"></path><path d="M273.12,163.16s2.34-1.87,2.11,1.17" style="fill:none;stroke:#263238;stroke-linecap:round;stroke-linejoin:round"></path><path d="M279.21,163.4s-2.34-.24-2.34.7" style="fill:none;stroke:#263238;stroke-linecap:round;stroke-linejoin:round"></path><path d="M283.05,123.86a63.19,63.19,0,0,0-14.32,4.65c-8,3.71-12.41,9.59-19.43,9.36s-9.36,2.57-5.61,7.25,10.06,4.22,10.06,4.22-5.62,5.38-4.68,8.89,4.91,2.81,7.72-.94,5.15-8.89,11.7-10.29,8.66-1.41,8.66-1.41-7.49,5.85-6.55,8.19,7.25,2.11,10.06,4.92.47,22-1.87,24.57-5.62,1.64-9.6,1.4-7.48.71-6.55,3.75,4.46,18.05,7.27,19,13.65.7,24.85-14c3.15-4.14-2.4-19.5-2.4-22.78s-.28-6.71.51-9.9c.47-1.87,2.12-3.71,4.17-3.73,2.83,0,3.7,2.7,4.22,5,1.17,5.15-2.58,9.6-1.88,10.3s5.39,4.92,9.36,6.32,4.69-8.89,6.56-16.85,1.87-23.4-7.49-33C301.79,122.57,292.09,122.1,283.05,123.86Z" style="fill:#263238;stroke:#263238;stroke-linecap:round;stroke-linejoin:round"></path><path d="M271.8,190.87c.63,1.62.25,3.28-.84,3.7s-2.49-.54-3.12-2.16-.25-3.27.85-3.69S271.18,189.26,271.8,190.87Z" style="fill:#fff"></path><circle cx="295.99" cy="167.24" r="12.75" transform="translate(-31.56 258.28) rotate(-45)" style="fill:#fff;stroke:#263238;stroke-linecap:round;stroke-linejoin:round"></circle><path d="M293.07,161.51l-5-38.68a1.45,1.45,0,0,1,1.39-1.64l7.64-.34a1.48,1.48,0,0,1,1.53,1.48l-.46,38.94Z" style="fill:#BA68C8;stroke:#263238;stroke-linecap:round;stroke-linejoin:round"></path><circle cx="295.99" cy="167.24" r="7.84" style="fill:#BA68C8;stroke:#263238;stroke-linecap:round;stroke-linejoin:round"></circle><path d="M203.49,270.76h8.37a8.67,8.67,0,0,1,8.67,8.67v2.76a0,0,0,0,1,0,0h-25.7a0,0,0,0,1,0,0v-2.76A8.67,8.67,0,0,1,203.49,270.76Z" style="fill:#263238;stroke:#263238;stroke-linecap:round;stroke-linejoin:round"></path><path d="M285.25,250.87s-49.18,14.6-52.67,14.6-13.33.31-19.67-1-11.11-2.22-13.65.32-4.44,11.11-4.44,11.11a7.23,7.23,0,0,0,3.81-.64c2.54-.95,4.12-6.66,4.12-6.66s6.67-.64,9.52,2.22,2.54,3.17.64,5.08-7.62,2.22-8.89,4.44,3.17,1.59,5.08,1.27,7-.64,10.15-2.22A80.14,80.14,0,0,1,230.36,275c1.58-.31,32.68-1.58,42.52-1.58s22.53-2.54,28.87-4.44a27.41,27.41,0,0,0,9.84-5.08S289.38,250.87,285.25,250.87Z" style="fill:#fff;stroke:#263238;stroke-linecap:round;stroke-linejoin:round"></path><path d="M195.66,262.5s4.7-3.66,9.4-3.66" style="fill:none;stroke:#263238;stroke-linecap:round;stroke-linejoin:round"></path><path d="M194.62,259.37a16.84,16.84,0,0,1,9.92-4.18" style="fill:none;stroke:#263238;stroke-linecap:round;stroke-linejoin:round"></path><path d="M309.37,218.82,297,244.21s-3.17-.64-3.81,1.27a7.64,7.64,0,0,1-2.22,3.17l-5.71,2.22s5.4,4.12,12.38,10.15,12.05,7,12.05,7,12.7-11.74,14.6-24.75S314.76,213.11,309.37,218.82Z" style="fill:#BA68C8;stroke:#263238;stroke-linecap:round;stroke-linejoin:round"></path><path d="M223.09,329.43c-4.62-8.66-3.46-21.36,28.87-27.14s53.84-4.85,53.84-4.85l5.81-7.36s70.27,8.17,71.42,9.9-.63,15-1.73,21.94-2.15,12.91-10.81,15.8-47.51,2.1-67.72-.21-52-9.23-52-9.23" style="fill:#6b6b6b;stroke:#263238;stroke-linecap:round;stroke-linejoin:round"></path><path d="M242.74,340.05a44.84,44.84,0,0,0,3.93,4.28" style="fill:none;stroke:#263238;stroke-linecap:round;stroke-linejoin:round"></path><path d="M334.21,321c-23.08-.39-69.1,0-78.21,0-12,0-20-1.33-19.33,6.67a17.33,17.33,0,0,0,2.13,6.54" style="fill:none;stroke:#263238;stroke-linecap:round;stroke-linejoin:round"></path><path d="M372.67,306.33s-2.67,4-2,6,8,4,3.33,6.67-11.33,0-11.33,3.33S366,329,361.33,329s-10.66-6-14-7.33a35.48,35.48,0,0,0-6.23-.49" style="fill:none;stroke:#263238;stroke-linecap:round;stroke-linejoin:round"></path><path d="M310.84,298.6s27.89,6.2,41.06,17.43" style="fill:none;stroke:#263238;stroke-linecap:round;stroke-linejoin:round"></path><path d="M317.81,299.37s35.25,5.81,49.58,19.76" style="fill:none;stroke:#263238;stroke-linecap:round;stroke-linejoin:round"></path><path d="M314.26,177.86s-11.43,27-14.6,41.89,2.86,21.89,5.39,29.19,10.79,26,10.79,26-6.34,8.25-7,13.33.95,4.44,22.85,10.78a143.46,143.46,0,0,0,46,5.4c4.44-.32,7-3.81,7.93-6.35s1.27-27.92-2.22-47.28-16.82-47.59-35.86-60.92S317.11,175.64,314.26,177.86Z" style="fill:#fff;stroke:#263238;stroke-linecap:round;stroke-linejoin:round"></path><path d="M314.26,177.86s-11.43,27-14.6,41.89c-1.91,9-.47,15.1,1.52,20.14l21.07-62.47C318.14,176.57,315.45,176.94,314.26,177.86Z" style="fill:#BA68C8;stroke:#263238;stroke-linecap:round;stroke-linejoin:round"></path><path d="M366.74,233.28a22.27,22.27,0,0,0,3.65.19" style="fill:none;stroke:#263238;stroke-linecap:round;stroke-linejoin:round"></path><path d="M342,219.29s9,9.31,19.8,12.85" style="fill:none;stroke:#263238;stroke-linecap:round;stroke-linejoin:round"></path><path d="M346.28,233s10.4,13.7,24.58,16.07" style="fill:none;stroke:#263238;stroke-linecap:round;stroke-linejoin:round"></path><path d="M338.72,215.51a35.41,35.41,0,0,0,18.91,1.89" style="fill:none;stroke:#263238;stroke-linecap:round;stroke-linejoin:round"></path><path d="M356.9,279.71a49.7,49.7,0,0,1,5,4.8" style="fill:none;stroke:#263238;stroke-linecap:round;stroke-linejoin:round"></path><path d="M331.16,267.5a58.93,58.93,0,0,1,22.7,9.85" style="fill:none;stroke:#263238;stroke-linecap:round;stroke-linejoin:round"></path><path d="M315.06,249.88a119.27,119.27,0,0,1-25.4,6.41c-13.1,1.6-35.71,2.74-37,2.68s-16.5-7.14-16.5-7.14-6.71-5.72-9.56-5.86-10.19.47-10.89,1.71,2.45,2,2.45,2l7,.33c1.9.09,6.08,5.69,6.08,5.69s-6.92-1.28-9.46-1.4-8.12,3.74-8.17,4.69,1.53,1.34,3.11,1.42,6.15-2.25,6.15-2.25l7.5,2.58s-7.14,3.16-8.21,5.65S220,272,220,272s.24,1.6,2.82.77,3.73-4.9,3.73-4.9l7.73-2.18s-5.24,3.12-5.63,4.69-1.51,5.14-.24,5.2,4.66-4.54,4.66-4.54l5.8-1.63,7.92.38a34.79,34.79,0,0,0,5.74-.37,411.6,411.6,0,0,0,49.27,5.85c24.41,1.17,33.83-3.15,40.42-8.23s-7.75-17.21-13.14-17.47S315.06,249.88,315.06,249.88Z" style="fill:#fff;stroke:#263238;stroke-linecap:round;stroke-linejoin:round"></path><path d="M320.7,191.69s-8.28,6.92-8.82,18.33,4.72,34.21,4.72,34.21l-.82,3.78-3.92,2.35s3.2,6.19,15,11.83S349,270.24,351,269.06s-.95-13.38-.54-28.61a125.33,125.33,0,0,0-5.44-39c-2.78-8.39-14.34-12.44-17.84-12.29" style="fill:#BA68C8;stroke:#263238;stroke-linecap:round;stroke-linejoin:round"></path><path d="M315.78,248s9.45,8.39,17,9.38" style="fill:none;stroke:#263238;stroke-linecap:round;stroke-linejoin:round"></path><line x1="231.67" y1="243.71" x2="243.15" y2="249.97" style="fill:none;stroke:#263238;stroke-linecap:round;stroke-linejoin:round"></line><line x1="234.8" y1="241.1" x2="245.23" y2="246.84" style="fill:none;stroke:#263238;stroke-linecap:round;stroke-linejoin:round"></line><rect x="197.36" y="78.48" width="72.91" height="29.52" rx="5.9" transform="translate(467.63 186.48) rotate(180)" style="fill:#263238;stroke:#263238;stroke-miterlimit:10"></rect><circle cx="214.67" cy="92.82" r="8.15" style="fill:#BA68C8"></circle><path d="M220.54,91.61a3.08,3.08,0,0,0-5.87-1.29,3.08,3.08,0,0,0-5.87,1.29,3,3,0,0,0,.4,1.52c1.32,2.78,5.47,5.84,5.47,5.84s4.15-3.06,5.47-5.84A3.13,3.13,0,0,0,220.54,91.61Z" style="fill:#263238;stroke:#263238;stroke-miterlimit:10"></path><path d="M211.55,89.35a.84.84,0,1,1-1-.56A.81.81,0,0,1,211.55,89.35Z" style="fill:#BA68C8"></path><ellipse cx="216.15" cy="89.55" rx="0.84" ry="0.78" transform="translate(-14.97 53.18) rotate(-13.56)" style="fill:#BA68C8"></ellipse><circle cx="252.85" cy="92.82" r="8.15" style="fill:gray"></circle><polygon points="259.14 87.4 257.7 86.01 252.62 91.28 247.53 86.01 246.09 87.4 251.23 92.72 246.09 98.04 247.53 99.43 252.62 94.16 257.7 99.43 259.14 98.04 254.01 92.72 259.14 87.4" style="fill:#263238"></polygon><circle cx="233.87" cy="92.82" r="8.15" style="fill:gray"></circle><polygon points="240.16 87.4 238.72 86.01 233.64 91.28 228.56 86.01 227.12 87.4 232.25 92.72 227.12 98.04 228.56 99.43 233.64 94.16 238.72 99.43 240.16 98.04 235.03 92.72 240.16 87.4" style="fill:#263238"></polygon><polyline points="245.22 107.87 249.72 114.37 244.22 115.37 251.22 126.87 238.72 113.87 240.72 111.87 235.22 105.87" style="fill:#263238"></polyline></g><g id="freepik--Device--inject-116"><path d="M131.42,287.19h46.31a3.35,3.35,0,1,0,0-6.7H131.42a7.92,7.92,0,0,1-7.63-10.05l16.43-58.87a3.35,3.35,0,1,0-6.45-1.8l-16.43,58.87a14.61,14.61,0,0,0,14.08,18.55Z" style="fill:#828282;stroke:#263238;stroke-linecap:round;stroke-linejoin:round"></path><rect x="145.25" y="133.02" width="10.56" height="136.54" transform="translate(323.95 383.24) rotate(173.17)" style="fill:#fff;stroke:#263238;stroke-linecap:round;stroke-linejoin:round"></rect><line x1="154.67" y1="130.33" x2="186" y2="117" style="fill:none;stroke:#263238;stroke-linecap:round;stroke-linejoin:round"></line><line x1="167.33" y1="267" x2="188.67" y2="274.33" style="fill:none;stroke:#263238;stroke-linecap:round;stroke-linejoin:round"></line><path d="M137.16,134.14s-18.62,66.46,16.26,135.57Z" style="fill:#263238;stroke:#263238;stroke-linecap:round;stroke-linejoin:round"></path><rect x="206.54" y="275.6" width="6.14" height="2.63" style="fill:#fff;stroke:#263238;stroke-linecap:round;stroke-linejoin:round"></rect><rect x="214.44" y="275.6" width="6.14" height="2.63" style="fill:#fff;stroke:#263238;stroke-linecap:round;stroke-linejoin:round"></rect><rect x="222.33" y="275.6" width="6.14" height="2.63" style="fill:#fff;stroke:#263238;stroke-linecap:round;stroke-linejoin:round"></rect><rect x="230.22" y="275.6" width="6.14" height="2.63" style="fill:#fff;stroke:#263238;stroke-linecap:round;stroke-linejoin:round"></rect><rect x="238.11" y="275.6" width="6.14" height="2.63" style="fill:#fff;stroke:#263238;stroke-linecap:round;stroke-linejoin:round"></rect><rect x="246.01" y="275.6" width="6.14" height="2.63" style="fill:#fff;stroke:#263238;stroke-linecap:round;stroke-linejoin:round"></rect><rect x="253.9" y="275.6" width="6.14" height="2.63" style="fill:#fff;stroke:#263238;stroke-linecap:round;stroke-linejoin:round"></rect><rect x="261.79" y="275.6" width="6.14" height="2.63" style="fill:#fff;stroke:#263238;stroke-linecap:round;stroke-linejoin:round"></rect><rect x="203.03" y="277.62" width="72.68" height="4.99" style="fill:#fff;stroke:#263238;stroke-linecap:round;stroke-linejoin:round"></rect></g><g id="freepik--Table--inject-116"><polygon points="95.27 447.67 88.07 447.67 86.67 300.33 96.67 300.33 95.27 447.67" style="fill:#fff;stroke:#263238;stroke-linecap:round;stroke-linejoin:round"></polygon><polygon points="289.93 447.67 282.73 447.67 281.33 300.33 291.33 300.33 289.93 447.67" style="fill:#fff;stroke:#263238;stroke-linecap:round;stroke-linejoin:round"></polygon><rect x="82.67" y="286.86" width="212.83" height="24.76" style="fill:#263238;stroke:#263238;stroke-linecap:round;stroke-linejoin:round"></rect><rect x="82.89" y="293.19" width="212.25" height="7.3" style="fill:#263238"></rect><rect x="72.45" y="282.54" width="226.46" height="11.53" style="fill:#fff;stroke:#263238;stroke-linecap:round;stroke-linejoin:round"></rect></g><g id="freepik--Plants--inject-116"><path d="M112.73,399.46s-21-33.81-23-54.22,13.39-7.65,13.39-7.65-21.69-77.81-4.47-82.91S126.12,344,126.12,344s12.12-32.53,17.86-22.33-7,64.42-7,64.42,14-16.58,15.31-6.38-13.39,31.89-13.39,31.89" style="fill:#BA68C8"></path><polygon points="152.27 394.35 100.61 394.35 107.06 447.29 145.81 447.29 152.27 394.35" style="fill:#263238"></polygon><path d="M140.79,401.37s11.48-17.86,10.84-30-9.57,8.29-9.57,8.29,7.66-40.82-1.27-48.47-10.84,37-10.84,37S110.17,280.83,99.33,300s14.67,67,14.67,67-8.29-15.95-9.57-.64S109.54,402,109.54,402" style="fill:none;stroke:#263238;stroke-miterlimit:10"></path></g><g id="freepik--Floor--inject-116"><line x1="449" y1="447.67" x2="454.33" y2="447.67" style="fill:none;stroke:#263238;stroke-linecap:round;stroke-linejoin:round"></line><line x1="39.67" y1="447.67" x2="437" y2="447.67" style="fill:none;stroke:#263238;stroke-linecap:round;stroke-linejoin:round"></line></g></svg>